<svg width="323" height="224" viewBox="0 0 323 224" version="1.1" xmlns="http://www.w3.org/2000/svg" xmlns:xlink="http://www.w3.org/1999/xlink">
<title>Angled View</title>
<desc>Created using Figma</desc>
<g id="Canvas" transform="translate(131 -638)">
<g id="Angled View">
<g id="Group">
<g id="Shape">
<use xlink:href="#path0_fill" transform="translate(-130.6 689.4)" fill="url(#paint0_linear)"/>
</g>
<g id="Bottom_Edge">
<use xlink:href="#path1_fill" transform="translate(-130.6 792.2)" fill="#151617"/>
</g>
<g id="Logo">
<g id="Shape">
<use xlink:href="#path2_fill" transform="translate(38.8695 812.872)" fill="#7B7C7D"/>
</g>
<g id="Shape">
<use xlink:href="#path3_fill" transform="translate(-4.90081 812.4)" fill="#7B7C7D"/>
</g>
<g id="Shape">
<use xlink:href="#path4_fill" transform="translate(69.1 794.252)" fill="#7B7C7D"/>
</g>
<g id="Shape">
<use xlink:href="#path5_fill" transform="translate(52.7348 795.891)" fill="#7B7C7D"/>
</g>
<g id="Shape">
<use xlink:href="#path6_fill" transform="translate(38.9794 796.9)" fill="#7B7C7D"/>
</g>
<g id="Shape">
<use xlink:href="#path7_fill" transform="translate(21.7122 796.9)" fill="#7B7C7D"/>
</g>
<g id="Shape">
<use xlink:href="#path8_fill" transform="translate(-2 795.9)" fill="#7B7C7D"/>
</g>
<g id="Shape">
<use xlink:href="#path9_fill" transform="translate(-18.4347 794.421)" fill="#7B7C7D"/>
</g>
</g>
</g>
<g id="Dot Top 1 ">
<g id="Dot_Top">
<g id="Top">
<g id="Dark_Top">
<use xlink:href="#path10_fill" transform="translate(-120.611 641.256)" fill="url(#paint10_linear)"/>
</g>
<g id="Colored_Ring">
<use xlink:href="#path11_fill" transform="translate(-129.499 638.329)" fill="url(#paint11_radial)"/>
</g>
<g id="Group">
<g id="Shape">
<use xlink:href="#path12_fill" transform="translate(-130.5 638)" fill="url(#paint12_radial)"/>
</g>
<g id="Shape">
<use xlink:href="#path13_fill" transform="translate(-120.081 641.12)" fill="url(#paint13_radial)"/>
</g>
</g>
</g>
<g id="Button_Ring">
<g id="Shape">
<use xlink:href="#path14_fill" transform="translate(87.064 682.071)" fill="#151617"/>
</g>
</g>
<g id="Button">
<use xlink:href="#path15_fill" transform="translate(108.903 689.261)" fill="#7B7C7E"/>
</g>
<g id="Mic_Ring">
<g id="Shape">
<use xlink:href="#path16_fill" transform="translate(-80.7593 681.916)" fill="#151617"/>
</g>
</g>
<g id="Button_Ring">
<g id="Shape">
<use xlink:href="#path17_fill" transform="translate(2.88745 709.629)" fill="#151617"/>
</g>
</g>
<g id="Mic_Ring">
<g id="Shape">
<use xlink:href="#path18_fill" transform="translate(3.35835 654.376)" fill="#151617"/>
</g>
</g>
<g id="Microphone">
<use xlink:href="#path19_fill" transform="translate(-65.2485 685.908)" fill="#7B7C7E"/>
</g>
<g id="Oval">
<use xlink:href="#path20_fill" transform="translate(26.6099 689.726)" fill="#151617"/>
</g>
<g id="Minus">
<use xlink:href="#path21_fill" transform="translate(20.7234 718.273)" fill="#7B7C7E"/>
</g>
<g id="Plus">
<use xlink:href="#path22_fill" transform="translate(21.1355 660.229)" fill="#7B7C7E"/>
</g>
<g id="Dot_Top">
<g id="Shape">
<use xlink:href="#path23_fill" transform="translate(28.9645 643.737)" fill="#151718"/>
</g>
<g id="Shape">
<use xlink:href="#path24_fill" transform="translate(17.8341 643.851)" fill="#151718"/>
</g>
<g id="Shape">
<use xlink:href="#path25_fill" transform="translate(6.69548 644.254)" fill="#151718"/>
</g>
<g id="Shape">
<use xlink:href="#path26_fill" transform="translate(-4.27621 644.925)" fill="#151718"/>
</g>
<g id="Shape">
<use xlink:href="#path27_fill" transform="translate(-14.999 645.871)" fill="#151718"/>
</g>
<g id="Shape">
<use xlink:href="#path28_fill" transform="translate(-25.5078 647.121)" fill="#151718"/>
</g>
<g id="Shape">
<use xlink:href="#path29_fill" transform="translate(-35.6191 648.637)" fill="#151718"/>
</g>
<g id="Shape">
<use xlink:href="#path30_fill" transform="translate(-45.3274 650.402)" fill="#151718"/>
</g>
<g id="Shape">
<use xlink:href="#path31_fill" transform="translate(-54.6521 652.429)" fill="#151718"/>
</g>
<g id="Shape">
<use xlink:href="#path32_fill" transform="translate(-63.3755 654.673)" fill="#151718"/>
</g>
<g id="Shape">
<use xlink:href="#path33_fill" transform="translate(-71.5764 657.128)" fill="#151718"/>
</g>
<g id="Shape">
<use xlink:href="#path34_fill" transform="translate(-79.2101 659.828)" fill="#151718"/>
</g>
<g id="Shape">
<use xlink:href="#path35_fill" transform="translate(-86.1283 662.667)" fill="#151718"/>
</g>
<g id="Shape">
<use xlink:href="#path36_fill" transform="translate(-92.2031 665.745)" fill="#151718"/>
</g>
<g id="Shape">
<use xlink:href="#path37_fill" transform="translate(-97.7213 668.909)" fill="#151718"/>
</g>
<g id="Shape">
<use xlink:href="#path38_fill" transform="translate(-102.385 672.238)" fill="#151718"/>
</g>
<g id="Shape">
<use xlink:href="#path39_fill" transform="translate(-106.176 675.699)" fill="#151718"/>
</g>
<g id="Shape">
<use xlink:href="#path40_fill" transform="translate(-109.213 679.214)" fill="#151718"/>
</g>
<g id="Shape">
<use xlink:href="#path41_fill" transform="translate(-111.33 682.82)" fill="#151718"/>
</g>
<g id="Shape">
<use xlink:href="#path42_fill" transform="translate(-112.669 686.468)" fill="#151718"/>
</g>
<g id="Shape">
<use xlink:href="#path43_fill" transform="translate(-113.076 690.152)" fill="#151718"/>
</g>
<g id="Shape">
<use xlink:href="#path44_fill" transform="translate(-112.728 693.639)" fill="#151718"/>
</g>
<g id="Shape">
<use xlink:href="#path45_fill" transform="translate(-111.505 697.103)" fill="#151718"/>
</g>
<g id="Shape">
<use xlink:href="#path46_fill" transform="translate(-109.467 700.514)" fill="#151718"/>
</g>
<g id="Shape">
<use xlink:href="#path47_fill" transform="translate(-106.593 703.878)" fill="#151718"/>
</g>
<g id="Shape">
<use xlink:href="#path48_fill" transform="translate(-102.797 707.161)" fill="#151718"/>
</g>
<g id="Shape">
<use xlink:href="#path49_fill" transform="translate(-98.1923 710.336)" fill="#151718"/>
</g>
<g id="Shape">
<use xlink:href="#path50_fill" transform="translate(-92.8312 713.401)" fill="#151718"/>
</g>
<g id="Shape">
<use xlink:href="#path51_fill" transform="translate(-86.6746 716.331)" fill="#151718"/>
</g>
<g id="Shape">
<use xlink:href="#path52_fill" transform="translate(-79.8576 719.093)" fill="#151718"/>
</g>
<g id="Shape">
<use xlink:href="#path53_fill" transform="translate(-72.4005 721.665)" fill="#151718"/>
</g>
<g id="Shape">
<use xlink:href="#path54_fill" transform="translate(-64.1996 724.055)" fill="#151718"/>
</g>
<g id="Shape">
<use xlink:href="#path55_fill" transform="translate(-55.5775 726.248)" fill="#151718"/>
</g>
<g id="Shape">
<use xlink:href="#path56_fill" transform="translate(-46.2887 728.214)" fill="#151718"/>
</g>
<g id="Shape">
<use xlink:href="#path57_fill" transform="translate(-36.6198 729.937)" fill="#151718"/>
</g>
<g id="Shape">
<use xlink:href="#path58_fill" transform="translate(-26.5085 731.442)" fill="#151718"/>
</g>
<g id="Shape">
<use xlink:href="#path59_fill" transform="translate(-15.9949 732.675)" fill="#151718"/>
</g>
<g id="Shape">
<use xlink:href="#path60_fill" transform="translate(-5.3172 733.654)" fill="#151718"/>
</g>
<g id="Shape">
<use xlink:href="#path61_fill" transform="translate(5.63404 734.371)" fill="#151718"/>
</g>
<g id="Shape">
<use xlink:href="#path62_fill" transform="translate(16.7157 734.804)" fill="#151718"/>
</g>
<g id="Shape">
<use xlink:href="#path63_fill" transform="translate(27.905 734.979)" fill="#151718"/>
</g>
<g id="Shape">
<use xlink:href="#path64_fill" transform="translate(38.4956 734.841)" fill="#151718"/>
</g>
<g id="Shape">
<use xlink:href="#path65_fill" transform="translate(49.0173 734.43)" fill="#151718"/>
</g>
<g id="Shape">
<use xlink:href="#path66_fill" transform="translate(59.3774 733.744)" fill="#151718"/>
</g>
<g id="Shape">
<use xlink:href="#path67_fill" transform="translate(69.5944 732.792)" fill="#151718"/>
</g>
<g id="Shape">
<use xlink:href="#path68_fill" transform="translate(79.5657 731.58)" fill="#151718"/>
</g>
<g id="Shape">
<use xlink:href="#path69_fill" transform="translate(89.233 730.111)" fill="#151718"/>
</g>
<g id="Shape">
<use xlink:href="#path70_fill" transform="translate(98.5186 728.388)" fill="#151718"/>
</g>
<g id="Shape">
<use xlink:href="#path71_fill" transform="translate(107.419 726.461)" fill="#151718"/>
</g>
<g id="Shape">
<use xlink:href="#path72_fill" transform="translate(115.809 724.287)" fill="#151718"/>
</g>
<g id="Shape">
<use xlink:href="#path73_fill" transform="translate(123.619 721.917)" fill="#151718"/>
</g>
<g id="Shape">
<use xlink:href="#path74_fill" transform="translate(130.878 719.345)" fill="#151718"/>
</g>
<g id="Shape">
<use xlink:href="#path75_fill" transform="translate(137.541 716.622)" fill="#151718"/>
</g>
<g id="Shape">
<use xlink:href="#path76_fill" transform="translate(143.511 713.711)" fill="#151718"/>
</g>
<g id="Shape">
<use xlink:href="#path77_fill" transform="translate(148.745 710.673)" fill="#151718"/>
</g>
<g id="Shape">
<use xlink:href="#path78_fill" transform="translate(153.315 707.49)" fill="#151718"/>
</g>
<g id="Shape">
<use xlink:href="#path79_fill" transform="translate(157.062 704.227)" fill="#151718"/>
</g>
<g id="Shape">
<use xlink:href="#path80_fill" transform="translate(160.034 700.882)" fill="#151718"/>
</g>
<g id="Shape">
<use xlink:href="#path81_fill" transform="translate(162.214 697.452)" fill="#151718"/>
</g>
<g id="Shape">
<use xlink:href="#path82_fill" transform="translate(163.529 693.988)" fill="#151718"/>
</g>
<g id="Shape">
<use xlink:href="#path83_fill" transform="translate(164.059 690.501)" fill="#151718"/>
</g>
<g id="Shape">
<use xlink:href="#path84_fill" transform="translate(163.642 686.837)" fill="#151718"/>
</g>
<g id="Shape">
<use xlink:href="#path85_fill" transform="translate(162.393 683.169)" fill="#151718"/>
</g>
<g id="Shape">
<use xlink:href="#path86_fill" transform="translate(160.31 679.557)" fill="#151718"/>
</g>
<g id="Shape">
<use xlink:href="#path87_fill" transform="translate(157.416 676.027)" fill="#151718"/>
</g>
<g id="Shape">
<use xlink:href="#path88_fill" transform="translate(153.735 672.567)" fill="#151718"/>
</g>
<g id="Shape">
<use xlink:href="#path89_fill" transform="translate(149.275 669.238)" fill="#151718"/>
</g>
<g id="Shape">
<use xlink:href="#path90_fill" transform="translate(144.04 666.042)" fill="#151718"/>
</g>
<g id="Shape">
<use xlink:href="#path91_fill" transform="translate(138.189 662.972)" fill="#151718"/>
</g>
<g id="Shape">
<use xlink:href="#path92_fill" transform="translate(131.584 660.1)" fill="#151718"/>
</g>
<g id="Shape">
<use xlink:href="#path93_fill" transform="translate(124.384 657.4)" fill="#151718"/>
</g>
<g id="Shape">
<use xlink:href="#path94_fill" transform="translate(116.574 654.886)" fill="#151718"/>
</g>
<g id="Shape">
<use xlink:href="#path95_fill" transform="translate(108.302 652.609)" fill="#151718"/>
</g>
<g id="Shape">
<use xlink:href="#path96_fill" transform="translate(99.4604 650.609)" fill="#151718"/>
</g>
<g id="Shape">
<use xlink:href="#path97_fill" transform="translate(90.2337 648.792)" fill="#151718"/>
</g>
<g id="Shape">
<use xlink:href="#path98_fill" transform="translate(80.5665 647.276)" fill="#151718"/>
</g>
<g id="Shape">
<use xlink:href="#path99_fill" transform="translate(70.654 646.008)" fill="#151718"/>
</g>
<g id="Shape">
<use xlink:href="#path100_fill" transform="translate(60.4936 645.008)" fill="#151718"/>
</g>
<g id="Shape">
<use xlink:href="#path101_fill" transform="translate(50.0769 644.311)" fill="#151718"/>
</g>
<g id="Shape">
<use xlink:href="#path102_fill" transform="translate(39.5552 643.871)" fill="#151718"/>
</g>
</g>
</g>
</g>
</g>
</g>
<defs>
<linearGradient id="paint0_linear" x1="0" y1="0" x2="1" y2="0" gradientUnits="userSpaceOnUse" gradientTransform="matrix(322 0 0 170.8 -0.0097 85.4067)">
<stop offset="0" stop-color="#1E2224"/>
<stop offset="0.0511382" stop-color="#3B3D3E"/>
<stop offset="0.1171" stop-color="#3B3D3E"/>
<stop offset="0.2081" stop-color="#171A1B"/>
<stop offset="0.4475" stop-color="#121414"/>
<stop offset="0.5369" stop-color="#161819"/>
<stop offset="0.6238" stop-color="#171A1B"/>
<stop offset="0.6709" stop-color="#161819"/>
<stop offset="0.7157" stop-color="#121414"/>
<stop offset="0.8885" stop-color="#121414"/>
<stop offset="1" stop-color="#3B3D3E"/>
</linearGradient>
<linearGradient id="paint10_linear" x1="0" y1="0" x2="1" y2="0" gradientUnits="userSpaceOnUse" gradientTransform="matrix(118.123 -28.8441 87.6096 38.8901 32.2257 78.7204)">
<stop offset="0" stop-color="#171A1B"/>
<stop offset="1" stop-color="#1E2224"/>
</linearGradient>
<radialGradient id="paint11_radial" cx="0.5" cy="0.5" r="0.5" gradientUnits="userSpaceOnUse" gradientTransform="matrix(198.972 0 0 65.5084 60.4198 63)">
<stop offset="0" stop-color="#76BFBF"/>
<stop offset="0.797951" stop-color="#76BFBF"/>
<stop offset="0.933773" stop-color="#5467AC"/>
<stop offset="1" stop-color="#5467AC"/>
</radialGradient>
<radialGradient id="paint12_radial" cx="0.5" cy="0.5" r="0.5" gradientUnits="userSpaceOnUse" gradientTransform="matrix(205.301 0 0 67.5797 58.2562 61.1462)">
<stop offset="0" stop-color="#63AEAE"/>
<stop offset="0.78794" stop-color="#63AEAE"/>
<stop offset="1" stop-color="#47557F"/>
</radialGradient>
<radialGradient id="paint13_radial" cx="0.5" cy="0.5" r="0.5" gradientUnits="userSpaceOnUse" gradientTransform="matrix(201.918 0 0 66.4781 49.4994 59.4383)">
<stop offset="0" stop-color="#63AEAE"/>
<stop offset="0.770089" stop-color="#63AEAE"/>
<stop offset="1" stop-color="#47557F"/>
</radialGradient>
<path id="path0_fill" d="M 322 0L 322 0.9C 322 21.3 249.9 37.8 161 37.8C 72.2 37.8 0.1 21.3 0 0.9L 0 104.8C 0.1 141.3 72.1 170.8 161 170.8C 249.9 170.8 322 141.2 322 104.7L 322 0Z"/>
<path id="path1_fill" d="M 2.84217e-14 0C 2.84217e-14 37.6 72.1 68 161 68C 249.9 68 322 37.5 322 0L 322 1.2C 322 38.8 249.9 69.2 161 69.2C 72.1 69.2 0 38.7 0 1.2L 0 0"/>
<path id="path2_fill" d="M 6.43046 0.0284281C 1.63046 0.228428 -0.269537 1.82843 0.0304635 2.12843C 0.230463 2.32843 0.830463 2.22843 1.93046 2.12843C 3.63046 2.02843 5.03046 1.92843 6.23046 1.92843C 7.33046 1.92843 8.73046 2.02843 6.03046 7.92843C 5.63046 8.72843 6.03046 8.62843 6.23046 8.62843C 8.03046 8.52843 10.3305 3.52843 10.2305 1.32843C 10.1305 0.728428 10.1305 -0.171572 6.43046 0.0284281Z"/>
<path id="path3_fill" d="M 0.200807 0C 0.100807 0 0.000807215 0.1 0.000807215 0.1C -0.0991928 0.8 9.10081 9.6 22.7008 11.1C 38.5008 12.8 48.7008 5.4 48.8008 5.4C 49.4008 4.9 49.5008 4.3 48.8008 4.2C 48.3008 4.1 48.2008 4.2 46.3008 4.9C 43.1008 6.1 34.5008 8.7 23.7008 7.8C 12.8008 6.9 5.00081 2.8 2.20081 1.1C 0.500807 0 0.400807 0 0.200807 0Z"/>
<path id="path4_fill" d="M 7.6 0.048092C 5.9 0.248092 4.7 1.24809 3.9 3.24809L 3.9 1.24809C 3.9 0.948092 3.7 0.848092 3.4 0.848092C 2.4 0.948092 1.4 1.04809 0.5 1.14809C 0.2 1.24809 0 1.34809 0 1.64809L 0 15.8481C 0 16.1481 0.2 16.2481 0.5 16.2481C 1.5 16.1481 2.5 16.0481 3.6 15.9481C 3.9 15.8481 4.1 15.6481 4.1 15.4481L 4.1 6.54809C 4.2 4.44809 6.6 2.94809 7.9 4.24809C 8.3 4.64809 8.3 5.04809 8.3 5.24809L 8.3 14.9481C 8.3 15.2481 8.5 15.3481 8.8 15.3481C 9.8 15.2481 10.8 15.0481 11.7 14.9481C 12 14.8481 12.2 14.6481 12.2 14.3481L 12.2 3.44809C 12 0.848092 10.5 -0.251908 7.6 0.048092Z"/>
<path id="path5_fill" fill-rule="evenodd" d="M 3.06519 14.8094C -1.83484 11.4095 -1.13483 1.1095 7.16516 0.00946045C 11.4651 -0.190552 13.4651 2.80945 13.9651 5.70947C 15.1652 13.3094 7.86517 18.2095 3.06519 14.8094ZM 4.96515 10.9095C 5.26514 12.9095 6.56519 12.9095 7.16516 12.9095L 7.22266 12.9025C 8.06506 12.8012 10.1513 12.5505 9.56519 5.80945C 9.06519 1.60944 6.16516 3.10944 5.66516 3.70947C 4.37103 5.28094 4.87128 10.0139 4.95435 10.7997C 4.96112 10.864 4.96515 10.9019 4.96515 10.9095Z"/>
<path id="path6_fill" d="M 11.5206 0C 8.02059 0.2 4.52059 0.3 1.02059 0.4C 0.620589 0.4 0.520589 0.6 0.420589 0.9L 0.420589 2.9C 0.420589 3.2 0.620589 3.3 1.02059 3.4C 2.92059 3.4 4.72059 3.3 6.62059 3.2C -0.079411 11.9 -0.0794114 11.9 0.0205886 12.4C 0.0205886 15.1 0.0205885 15.1 0.320589 15.2L 0.420589 15.2C 0.620589 15.2 0.720589 15.1 0.820589 15.1C 1.62059 14.8 3.92059 13.9 6.62059 13.8C 9.52059 13.7 11.2206 14.5 11.8206 14.8C 12.0206 14.9 12.2206 14.8 12.2206 14.7C 12.3206 14.6 12.3206 14.5 12.3206 14.4L 12.3206 11.9C 12.2206 11.4 10.2206 10.3 5.82059 10.6C 11.9206 2.8 11.9206 2.8 12.0206 2.3L 12.0206 0.6C 11.9206 0 11.5206 0 11.5206 0Z"/>
<path id="path7_fill" fill-rule="evenodd" d="M 0.787781 4.29999C 0.587769 4.09998 0.487793 0 7.38776 0C 11.5878 0.0999756 13.6878 1.29999 13.9878 3.79999L 13.9878 10.4C 13.9878 10.8981 13.9878 11.1894 14.0736 11.4528C 14.1945 11.824 14.4859 12.1396 15.1878 12.9C 15.2249 12.9742 15.2551 13.0345 15.2631 13.0978C 15.2984 13.3756 14.9058 13.7078 12.7878 15.5C 12.6901 15.5977 12.6163 15.6714 12.5286 15.6967C 12.2567 15.775 11.8508 15.3875 10.1878 13.8C 7.18781 16.5 3.08777 16 1.38776 14.6C -0.612244 13 -0.212219 9.70001 1.08777 8.40002C 2.78778 6.5 3.78778 6.40002 9.38776 6.09998L 9.38776 4.70001C 9.28778 2 5.18781 2.59998 4.68781 4.29999C 4.66412 4.44196 4.64606 4.55029 4.58728 4.62775C 4.39752 4.87762 3.78351 4.80542 1.18781 4.5C 1.08777 4.5 0.887756 4.40002 0.787781 4.29999ZM 5.28778 9.09998C 3.78778 10.5 4.28778 12.9 6.58777 13C 8.08777 13 9.28778 11.7 9.38776 9.89996L 9.38776 8.09998L 7.58777 8.19995C 6.58777 8.29999 5.88776 8.59998 5.28778 9.09998Z"/>
<path id="path8_fill" d="M 16.3 0.7C 13.7 0.7 12.7 2 12.1 2.9C 10.3 -0.4 5.5 -0.7 3.9 2.4L 3.9 0.7C 3.9 0.6 3.8 0.3 3.4 0.2C 2.4 0.1 1.5 0 0.5 0C 0.1 0 0 0.3 0 0.4L 0 14.6C 0.1 15 0.4 15.1 0.5 15.1C 1.5 15.2 2.6 15.3 3.6 15.4C 4 15.4 4.1 15.1 4.1 15L 4.1 6C 4.2 3.2 6.8 3.4 7.6 4.3C 8.1 4.8 8.1 5.4 8.1 5.7L 8.1 15.3C 8.2 15.7 8.5 15.8 8.6 15.8C 9.7 15.9 10.7 15.9 11.8 16C 12.1 16 12.3 15.8 12.3 15.5L 12.3 6C 12.4 4.1 15 3.8 15.9 4.9C 16.3 5.4 16.3 5.9 16.3 6.2L 16.3 15.7C 16.4 16.1 16.7 16.2 16.8 16.2C 17.9 16.2 18.9 16.3 20 16.3C 20.5 16.3 20.5 16 20.6 15.8L 20.6 3.8C 20.7 1.8 18.1 0.8 16.3 0.7Z"/>
<path id="path9_fill" fill-rule="evenodd" d="M 0.734741 3.67865C 0.634766 3.57867 0.334717 -0.621338 6.83472 0.0786743C 12.4916 0.761353 12.7264 3.44177 12.8273 4.59412L 12.8347 4.67865L 12.8347 11.2786C 12.8347 11.7727 12.8347 12.0634 12.9115 12.3321C 13.0212 12.716 13.2877 13.0551 13.9348 13.8787C 14.0027 13.9693 14.0553 14.0394 14.0669 14.1157C 14.1064 14.3762 13.6683 14.7091 11.7347 16.1786C 11.6447 16.2462 11.575 16.2985 11.4981 16.3128C 11.2335 16.3622 10.8847 15.9611 9.33472 14.1786C 6.53473 16.5787 2.73474 15.6786 1.23474 14.0787C -0.0652466 12.7786 -0.765259 9.67865 1.33472 7.47864C 2.69855 6.11487 4.06238 6.1745 8.38422 6.36334L 8.73474 6.37866L 8.73474 4.97864C 8.63477 3.77863 8.03473 3.17865 6.63477 2.87866C 5.13477 2.57867 4.43475 3.47864 4.33472 4.07867C 4.31177 4.1936 4.29407 4.2821 4.2428 4.34174C 4.07098 4.54169 3.52228 4.41779 1.13477 3.87866C 0.834717 3.87866 0.734741 3.67865 0.734741 3.67865ZM 5.13477 8.77863C 3.53479 9.97864 3.93475 12.5787 6.13477 12.9786C 7.53479 13.1786 8.63477 11.9786 8.73474 10.1786L 8.73474 8.37866L 7.03479 8.27863C 6.73474 8.27863 5.93475 8.17865 5.13477 8.77863Z"/>
<path id="path10_fill" d="M 150.988 99.4207C 234.376 99.4207 301.976 77.1646 301.976 49.7104C 301.976 22.2561 234.376 0 150.988 0C 67.5996 0 0 22.2561 0 49.7104C 0 77.1646 67.5996 99.4207 150.988 99.4207Z"/>
<path id="path11_fill" fill-rule="evenodd" d="M 0 52.6368C 0 23.5664 71.5795 0 159.877 0C 248.233 0 319.812 23.547 319.812 52.6368C 319.812 81.7265 248.174 105.293 159.877 105.293C 71.5795 105.293 0 81.7072 0 52.6368ZM 10.4191 52.3267C 10.4191 79.5172 77.3482 101.533 159.877 101.533C 242.464 101.533 309.334 79.4978 309.334 52.3267C 309.334 25.1556 242.405 3.12022 159.877 3.12022C 77.3482 3.12022 10.4191 25.1362 10.4191 52.3267Z"/>
<path id="path12_fill" fill-rule="evenodd" d="M 0 52.9662C 0 23.7602 72.1682 0 160.877 0C 249.586 0 321.813 23.7602 321.813 52.9662C 321.813 82.1723 249.586 105.932 160.877 105.932C 72.1682 105.932 0 82.1723 0 52.9662ZM 1.94254 52.9662C 1.94254 81.8235 73.2277 105.293 160.877 105.293C 248.527 105.293 319.812 81.8235 319.812 52.9662C 319.812 24.109 248.527 0.639542 160.877 0.639542C 73.2277 0.639542 1.94254 24.109 1.94254 52.9662Z"/>
<path id="path13_fill" fill-rule="evenodd" d="M 0 49.5359C 0 22.2292 67.5178 0 150.458 0C 233.457 0 300.916 22.2292 300.916 49.5359C 300.916 76.8427 233.399 99.0719 150.458 99.0719C 67.5178 99.0719 0 76.8427 0 49.5359ZM 2.0014 49.5359C 2.0014 76.4939 68.5774 98.4323 150.458 98.4323C 232.339 98.4323 298.974 76.4939 298.915 49.5359C 298.915 22.5974 232.339 0.658936 150.458 0.658936C 68.6363 0.658936 2.0014 22.578 2.0014 49.5359Z"/>
<path id="path14_fill" fill-rule="evenodd" d="M 0 8.97308C 0 13.915 12.2439 17.9461 27.2544 17.9461C 42.2649 17.9461 54.5088 13.9344 54.5088 8.97308C 54.5088 4.0311 42.2649 0 27.2544 0C 12.2439 0 0 4.0311 0 8.97308ZM 1.41275 8.97305C 1.41275 4.28302 13.0091 0.465118 27.2544 0.465118C 41.4996 0.465118 53.096 4.28302 53.096 8.97305C 53.096 13.6631 41.4996 17.481 27.2544 17.481C 13.0091 17.481 1.41275 13.6631 1.41275 8.97305Z"/>
<path id="path15_fill" d="M 5.41554 3.56597C 8.40646 3.56597 10.8311 2.7677 10.8311 1.78298C 10.8311 0.798269 8.40646 0 5.41554 0C 2.42462 0 0 0.798269 0 1.78298C 0 2.7677 2.42462 3.56597 5.41554 3.56597Z"/>
<path id="path16_fill" fill-rule="evenodd" d="M 0 8.97305C 0 13.915 12.2439 17.9461 27.2544 17.9461C 42.2649 17.9461 54.5087 13.915 54.5087 8.97305C 54.5087 4.0311 42.2649 0 27.2544 0C 12.2439 0 0 4.0311 0 8.97305ZM 1.41275 8.97308C 1.41275 4.28305 13.0091 0.465149 27.2544 0.465149C 41.4996 0.465149 53.096 4.28305 53.096 8.97308C 53.096 13.6631 41.4996 17.481 27.2544 17.481C 13.0091 17.481 1.41275 13.6631 1.41275 8.97308Z"/>
<path id="path17_fill" fill-rule="evenodd" d="M 27.2544 0C 12.2439 0 0 4.0311 0 8.97305C 0 13.915 12.2439 17.9461 27.2544 17.9461C 42.2649 17.9461 54.5087 13.915 54.5087 8.97305C 54.5087 4.0311 42.2649 0 27.2544 0ZM 27.2544 0.465118C 41.4996 0.465118 53.096 4.28302 53.096 8.97305C 53.096 13.6631 41.4996 17.481 27.2544 17.481C 13.0091 17.481 1.41275 13.6631 1.41275 8.97305C 1.41275 4.28302 13.0091 0.465118 27.2544 0.465118Z"/>
<path id="path18_fill" fill-rule="evenodd" d="M 27.2544 0C 12.2439 0 0 4.0311 0 8.97305C 0 13.915 12.2439 17.9461 27.2544 17.9461C 42.2649 17.9461 54.5088 13.915 54.5088 8.97305C 54.5088 4.0311 42.2649 0 27.2544 0ZM 27.2544 0.465118C 41.4996 0.465118 53.096 4.28302 53.096 8.97305C 53.096 13.6631 41.4996 17.481 27.2544 17.481C 13.0091 17.481 1.41275 13.6631 1.41275 8.97305C 1.41275 4.28302 13.0091 0.465118 27.2544 0.465118Z"/>
<path id="path19_fill" d="M 11.5669 6.25982L 11.9201 6.25982C 14.4513 6.25982 16.5115 5.58151 16.5115 4.74816L 16.5115 3.29464L 23.1633 1.10467C 23.5164 0.988393 23.5164 0.79459 23.1633 0.678309L 22.5746 0.484506C 22.2214 0.368225 21.6328 0.368225 21.2796 0.484506L 16.4527 2.07369L 16.4527 1.51166C 16.4527 0.678309 14.3924 0 11.8612 0L 11.508 0C 8.97687 0 6.9166 0.678309 6.9166 1.51166L 6.9166 4.72878C 6.9166 4.86444 6.97547 5.0001 7.0932 5.13577L 5.73931 5.58151C 5.32726 5.31019 5.0918 5.0001 5.0918 4.67064L 5.0918 4.05047C 5.0918 3.87605 4.67974 3.72101 4.0911 3.72101C 3.56131 3.72101 3.0904 3.85667 3.0904 4.05047L 3.0904 4.67064C 3.0904 5.17453 3.50245 5.65903 4.26769 6.06602L 0.264891 7.38387C -0.0882971 7.50015 -0.0882971 7.69396 0.264891 7.81024L 0.853538 8.00404C 1.20673 8.12032 1.79537 8.12032 2.14856 8.00404L 5.97477 6.74433C 6.79887 6.97689 7.74071 7.17069 8.80027 7.30635C 8.80027 7.30635 8.80027 7.30635 8.85914 7.30635C 9.0946 7.32573 9.33006 7.36449 9.56551 7.38387C 9.62438 7.38387 9.74211 7.40325 9.80097 7.40325C 9.9187 7.40325 10.0364 7.42263 10.1542 7.42263C 10.3308 7.44201 10.5073 7.44201 10.6251 7.44201C 10.6839 7.44201 10.6839 7.44201 10.7428 7.44201L 10.7428 8.97305L 6.03363 8.97305L 6.03363 8.97305C 5.50385 8.97305 5.03293 9.28314 5.03293 9.45756C 5.03293 9.63198 5.50385 9.94207 6.03363 9.94207L 6.03363 9.94207L 17.5123 9.94207L 17.5123 9.94207C 18.042 9.94207 18.513 9.63198 18.513 9.45756C 18.513 9.28314 18.042 8.97305 17.5123 8.97305L 17.5123 8.97305L 12.8031 8.97305L 12.8031 7.44201C 12.8619 7.44201 12.8619 7.44201 12.9208 7.44201C 13.0974 7.44201 13.274 7.42263 13.3917 7.42263C 13.5095 7.42263 13.6272 7.40325 13.7449 7.40325C 13.8038 7.40325 13.9215 7.38387 13.9804 7.38387C 14.2158 7.36449 14.4513 7.34511 14.6867 7.30635C 14.6867 7.30635 14.6867 7.30635 14.7456 7.30635C 18.042 6.91875 20.3966 5.89159 20.3966 4.67064L 20.3966 4.05047C 20.3966 3.87605 19.9846 3.72101 19.3959 3.72101C 18.8661 3.72101 18.3952 3.85667 18.3952 4.05047L 18.3952 4.67064C 18.3952 5.46523 17.0413 6.16292 15.0399 6.55052L 15.0399 6.55052C 14.569 6.62804 14.0392 6.70557 13.5095 6.74433C 13.4506 6.74433 13.4506 6.74433 13.3917 6.74433C 13.2151 6.76371 13.0385 6.76371 12.8619 6.78309C 12.7442 6.78309 12.6265 6.80247 12.5088 6.80247C 12.4499 6.80247 12.3322 6.80247 12.2733 6.80247C 12.0967 6.80247 11.9201 6.80247 11.7435 6.80247C 11.7435 6.80247 11.7435 6.80247 11.6846 6.80247C 11.6258 6.80247 11.6846 6.80247 11.6258 6.80247C 11.4492 6.80247 11.2726 6.80247 11.096 6.80247C 11.0371 6.80247 10.9194 6.80247 10.8605 6.80247C 10.7428 6.80247 10.6251 6.78309 10.5074 6.78309C 10.3308 6.76371 10.1542 6.76371 9.97757 6.74433C 9.9187 6.74433 9.9187 6.74433 9.85984 6.74433C 9.33006 6.70557 8.80027 6.62804 8.32936 6.55052L 8.32936 6.55052C 7.9173 6.473 7.56411 6.39548 7.21093 6.2792L 8.44709 5.87221C 9.38892 6.10478 10.3896 6.25982 11.5669 6.25982Z"/>
<path id="path20_fill" d="M 3.76735 2.48069C 5.848 2.48069 7.5347 1.92537 7.5347 1.24034C 7.5347 0.555321 5.848 0 3.76735 0C 1.6867 0 0 0.555321 0 1.24034C 0 1.92537 1.6867 2.48069 3.76735 2.48069Z"/>
<path id="path21_fill" d="M 18.307 0.658905L 0.588648 0.658905C 0.294324 0.658905 0 0.562007 0 0.465109L 0 0.193796C 0 0.0968978 0.294324 0 0.588648 0L 18.307 0C 18.6601 0 18.8956 0.0775182 18.8956 0.193796L 18.8956 0.465109C 18.8956 0.562007 18.6013 0.658905 18.307 0.658905Z"/>
<path id="path22_fill" d="M 17.9537 2.79076L 10.4779 2.79076L 10.4779 0.329465C 10.4779 0.155042 10.007 0 9.47721 0C 8.94743 0 8.47651 0.155042 8.47651 0.329465L 8.47651 2.79076L 1.0007 2.79076C 0.470917 2.79076 0 2.9458 0 3.12022C 0 3.29465 0.470917 3.44969 1.0007 3.44969L 8.47651 3.44969L 8.47651 5.91098C 8.47651 6.0854 8.94743 6.24045 9.47721 6.24045C 10.007 6.24045 10.4779 6.0854 10.4779 5.91098L 10.4779 3.44969L 17.9537 3.44969C 18.4835 3.44969 18.9544 3.29465 18.9544 3.12022C 18.9544 2.9458 18.4835 2.79076 17.9537 2.79076Z"/>
<path id="path23_fill" d="M 2.76665 3.21712L 1.1773 3.21712C 0.529785 3.21712 0 3.0427 0 2.82952L 0 0.387605C 0 0.174422 0.529785 0 1.1773 0L 2.76665 0C 3.41417 0 3.94395 0.174422 3.94395 0.387605L 3.94395 2.8489C 3.94395 3.0427 3.41417 3.21712 2.76665 3.21712Z"/>
<path id="path24_fill" d="M 3.41911 3.21876L 1.82977 3.25752C 1.18226 3.2769 0.652478 3.12186 0.593613 2.90867L 0.00496769 0.447381C -0.0538969 0.234199 0.41702 0.0597763 1.06453 0.040396L 2.65387 0.00163553C 3.30138 -0.0177447 3.83116 0.137297 3.89003 0.35048L 4.47867 2.81177C 4.53754 3.00557 4.06662 3.19938 3.41911 3.21876Z"/>
<path id="path25_fill" d="M 4.1387 3.18434L 2.54935 3.26186C 1.90183 3.30062 1.31319 3.14558 1.19546 2.95178L 0.0181611 0.529246C -0.0995685 0.316063 0.37135 0.122261 0.959998 0.0835002L 2.54935 0.00597924C 3.19686 -0.0327813 3.78551 0.122261 3.90324 0.316063L 5.08053 2.73859C 5.19826 2.95178 4.72734 3.14558 4.1387 3.18434Z"/>
<path id="path26_fill" d="M 4.75019 3.1531L 3.21971 3.26939C 2.5722 3.32753 1.98355 3.19187 1.80696 2.97868L 0.0410143 0.594911C -0.13558 0.381728 0.276473 0.187926 0.923985 0.129785L 2.45447 0.0135033C 3.10198 -0.0446375 3.69063 0.0910243 3.86722 0.304207L 5.63316 2.68798C 5.75089 2.90116 5.3977 3.09496 4.75019 3.1531Z"/>
<path id="path27_fill" d="M 5.3483 3.09808L 3.81781 3.25312C 3.22917 3.31126 2.52279 3.21436 2.3462 3.00118L 0.0504718 0.656166C -0.126122 0.462363 0.168201 0.2298 0.815713 0.171659L 2.3462 0.016617C 2.93484 -0.0415238 3.64122 0.0553775 3.81781 0.26856L 6.11354 2.61357C 6.29013 2.82676 5.99581 3.03994 5.3483 3.09808Z"/>
<path id="path28_fill" d="M 5.96776 3.01132L 4.49614 3.20512C 3.90749 3.28264 3.20112 3.18574 2.96566 2.99194L 0.0812831 0.72445C -0.154176 0.530647 0.140148 0.298084 0.728796 0.220564L 2.20041 0.0267611C 2.78906 -0.0507599 3.49544 0.0461413 3.7309 0.239944L 6.61527 2.50743C 6.85073 2.72061 6.55641 2.9338 5.96776 3.01132Z"/>
<path id="path29_fill" d="M 6.54296 2.92937L 5.13021 3.16193C 4.54156 3.25883 3.83518 3.18131 3.54086 2.98751L 0.12671 0.797546C -0.167613 0.603744 0.0678452 0.371181 0.656492 0.27428L 2.06924 0.0417172C 2.65789 -0.055184 3.36427 0.0223369 3.65859 0.216139L 7.07274 2.4061C 7.3082 2.59991 7.07274 2.83247 6.54296 2.92937Z"/>
<path id="path30_fill" d="M 7.00954 2.81166L 5.65565 3.08299C 5.12586 3.19927 4.41948 3.14113 4.0663 2.94733L 0.181217 0.854255C -0.171972 0.679832 0.00462225 0.447269 0.593271 0.330987L 1.94716 0.0596627C 2.47695 -0.0566191 3.18332 0.0015218 3.53651 0.195325L 7.42159 2.2884C 7.71592 2.46282 7.53932 2.69538 7.00954 2.81166Z"/>
<path id="path31_fill" d="M 7.56346 2.68395L 6.26843 2.99403C 5.73865 3.11032 5.03227 3.07156 4.62022 2.91651L 0.20536 0.920344C -0.147829 0.745921 -0.0300996 0.513358 0.440819 0.377696L 1.73584 0.0676113C 2.26563 -0.0486704 2.97201 -0.0099098 3.38406 0.145132L 7.79892 2.1413C 8.21097 2.31572 8.09324 2.54829 7.56346 2.68395Z"/>
<path id="path32_fill" d="M 7.98684 2.55201L 6.75068 2.90086C 6.27976 3.03652 5.51452 3.01714 5.10246 2.8621L 0.275553 0.982213C -0.1365 0.827171 -0.0776352 0.575228 0.393283 0.439566L 1.62944 0.0907214C 2.10036 -0.0449404 2.8656 -0.0255601 3.27766 0.129482L 8.10457 2.00937C 8.51662 2.16441 8.45775 2.41635 7.98684 2.55201Z"/>
<path id="path33_fill" d="M 8.41765 2.40315L 7.29922 2.77137C 6.82831 2.92642 6.12193 2.92642 5.65101 2.77137L 0.353188 1.02715C -0.117729 0.872111 -0.117729 0.639548 0.353188 0.484506L 1.47162 0.116281C 1.94254 -0.0387605 2.64891 -0.0387605 3.11983 0.116281L 8.41765 1.8605C 8.82971 2.01554 8.82971 2.26749 8.41765 2.40315Z"/>
<path id="path34_fill" d="M 8.81093 2.22255L 7.75137 2.62953C 7.33932 2.78457 6.57408 2.80395 6.10316 2.66829L 0.393282 1.07911C -0.0776351 0.943452 -0.1365 0.691509 0.275553 0.536467L 1.33512 0.129482C 1.74717 -0.0255601 2.51241 -0.0449403 2.98333 0.0907213L 8.6932 1.6799C 9.16412 1.81556 9.22299 2.06751 8.81093 2.22255Z"/>
<path id="path35_fill" d="M 9.13634 2.07775L 8.19451 2.50412C 7.84132 2.67854 7.07608 2.7173 6.5463 2.58164L 0.483239 1.12812C -0.0465432 1.01183 -0.164273 0.75989 0.24778 0.585467L 1.18961 0.159099C 1.5428 -0.0153237 2.30804 -0.0540844 2.83783 0.081578L 8.90089 1.5351C 9.43067 1.67077 9.5484 1.90333 9.13634 2.07775Z"/>
<path id="path36_fill" d="M 9.32468 1.84904L 8.50057 2.29479C 8.14739 2.46921 7.44101 2.52735 6.91123 2.43045L 0.553839 1.15135C 0.0240562 1.03507 -0.152538 0.802509 0.141786 0.628087L 0.965892 0.182342C 1.31908 0.0079201 2.02546 -0.0502206 2.55524 0.0466806L 8.91263 1.32578C 9.50128 1.44206 9.67787 1.67462 9.32468 1.84904Z"/>
<path id="path37_fill" d="M 9.60393 1.68905L 8.89755 2.15418C 8.60323 2.34798 7.89685 2.4255 7.3082 2.3286L 0.656492 1.20454C 0.0678453 1.10764 -0.167614 0.875073 0.12671 0.681269L 0.833086 0.216141C 1.12741 0.0223371 1.83379 -0.0551844 2.42243 0.0417175L 9.07414 1.16578C 9.66279 1.26268 9.89825 1.49524 9.60393 1.68905Z"/>
<path id="path38_fill" d="M 9.79396 1.48028L 9.20531 1.96478C 8.96985 2.15858 8.26348 2.25548 7.67483 2.17796L 0.728795 1.22833C 0.140148 1.15081 -0.154176 0.91825 0.081283 0.724448L 0.66993 0.239943C 0.905389 0.0461412 1.61177 -0.0507597 2.20041 0.026761L 9.08758 0.97639C 9.7351 1.07329 10.0294 1.28647 9.79396 1.48028Z"/>
<path id="path39_fill" d="M 9.87602 1.25536L 9.40511 1.75925C 9.22851 1.95306 8.52214 2.06934 7.93349 2.0112L 0.810857 1.25536C 0.22221 1.19722 -0.130979 0.964658 0.0456156 0.770854L 0.516533 0.266964C 0.693128 0.0731595 1.3995 -0.0431229 1.98815 0.0150183L 9.11078 0.770854C 9.69943 0.828995 10.0526 1.06156 9.87602 1.25536Z"/>
<path id="path40_fill" d="M 9.9117 1.05392L 9.55851 1.5578C 9.38192 1.77099 8.79327 1.88727 8.14576 1.84851L 0.905402 1.2671C 0.257891 1.20896 -0.0952975 1.01516 0.0224319 0.801975L 0.37562 0.298089C 0.552214 0.0849062 1.14086 -0.0313751 1.78837 0.00738533L 9.02873 0.588792C 9.67624 0.646933 10.0883 0.840735 9.9117 1.05392Z"/>
<path id="path41_fill" d="M 9.90931 0.839951L 9.67386 1.36322C 9.55613 1.5764 8.96748 1.71206 8.31997 1.6733L 0.96188 1.2857C 0.314369 1.24694 -0.0976842 1.05313 0.0200452 0.839951L 0.255504 0.316684C 0.373233 0.103501 0.96188 -0.0321609 1.60939 0.00659957L 8.96748 0.394205C 9.55613 0.432965 10.027 0.626768 9.90931 0.839951Z"/>
<path id="path42_fill" d="M 9.89424 0.602428L 9.77651 1.1257C 9.71764 1.33888 9.18786 1.49393 8.54035 1.47455L 1.06453 1.28074C 0.417021 1.26136 -0.053897 1.08694 0.0049677 0.873753L 0.122697 0.350483C 0.181562 0.137298 0.711344 -0.0177448 1.35886 0.00163555L 8.83467 0.195439C 9.48219 0.21482 9.9531 0.408624 9.89424 0.602428Z"/>
<path id="path43_fill" d="M 9.77154 0.38761L 9.77154 0.910883C 9.77154 1.12407 9.24176 1.29849 8.59425 1.29849L 1.17729 1.29849C 0.529782 1.29849 0 1.12407 0 0.910883L 0 0.38761C 0 0.174424 0.529782 0 1.17729 0L 8.65311 0C 9.24176 0 9.77154 0.174424 9.77154 0.38761Z"/>
<path id="path44_fill" d="M 9.77651 0.350479L 9.89424 0.873744C 9.9531 1.08693 9.48218 1.26135 8.83467 1.28073L 1.35886 1.47453C 0.711344 1.49391 0.181562 1.33887 0.122697 1.12569L 0.0049677 0.602422C -0.053897 0.389239 0.417021 0.214818 1.06453 0.195437L 8.54035 0.00163553C 9.129 -0.0177447 9.71764 0.137297 9.77651 0.350479Z"/>
<path id="path45_fill" d="M 9.67197 0.316687L 9.90743 0.839959C 10.0252 1.05314 9.55424 1.24695 8.9656 1.28571L 1.60751 1.67332C 0.959996 1.71208 0.371349 1.55704 0.25362 1.36323L 0.0181611 0.839959C -0.0995683 0.626774 0.371349 0.43297 0.959996 0.394209L 8.31809 0.00659964C 8.9656 -0.0321613 9.55424 0.103502 9.67197 0.316687Z"/>
<path id="path46_fill" d="M 9.5771 0.297333L 9.93028 0.801221C 10.1069 1.0144 9.69482 1.20821 9.04731 1.26635L 1.80696 1.84776C 1.15944 1.9059 0.570797 1.77024 0.394202 1.55705L 0.0410142 1.05316C -0.13558 0.839981 0.276473 0.646179 0.923985 0.588038L 8.16434 0.00662918C 8.81185 -0.0321314 9.4005 0.103531 9.5771 0.297333Z"/>
<path id="path47_fill" d="M 9.40996 0.266963L 9.88088 0.770851C 10.0575 0.964654 9.76315 1.19722 9.11564 1.25536L 1.99301 2.01119C 1.40436 2.06933 0.697984 1.97243 0.52139 1.75925L 0.0504718 1.25536C -0.126122 1.06156 0.168201 0.828992 0.815713 0.770851L 7.93834 0.0150183C 8.58586 -0.0431227 9.23337 0.0731593 9.40996 0.266963Z"/>
<path id="path48_fill" d="M 9.14645 0.239943L 9.7351 0.724447C 9.97056 0.918248 9.67623 1.15081 9.08759 1.22833L 2.20041 2.17796C 1.61177 2.25548 0.905389 2.15858 0.66993 1.96478L 0.081283 1.48027C -0.154176 1.28647 0.140148 1.05391 0.728795 0.976389L 7.61597 0.026761C 8.26348 -0.0507597 8.91099 0.0461411 9.14645 0.239943Z"/>
<path id="path49_fill" d="M 8.89755 0.223508L 9.60392 0.688632C 9.89825 0.882434 9.66279 1.115 9.07414 1.2119L 2.42243 2.31657C 1.83379 2.41347 1.12741 2.33595 0.833086 2.14215L 0.12671 1.67702C -0.167613 1.48322 0.0678453 1.25066 0.656492 1.15376L 7.3082 0.0297062C 7.89685 -0.0478145 8.60322 0.0297062 8.89755 0.223508Z"/>
<path id="path50_fill" d="M 8.54 0.182343L 9.36411 0.62809C 9.7173 0.802512 9.5407 1.03508 8.95206 1.15136L 2.59467 2.43046C 2.06489 2.54674 1.35851 2.4886 1.00532 2.2948L 0.181216 1.84905C -0.171972 1.67463 0.00462224 1.44206 0.593269 1.32578L 6.95066 0.0466807C 7.48044 -0.0502208 8.18682 0.00792013 8.54 0.182343Z"/>
<path id="path51_fill" d="M 8.1521 0.159099L 9.09393 0.585465C 9.44712 0.759888 9.32939 0.992451 8.85847 1.12811L 2.79541 2.58163C 2.26562 2.69792 1.55925 2.65916 1.1472 2.50411L 0.205359 2.07775C -0.147829 1.90332 -0.0300995 1.67076 0.440818 1.5351L 6.50389 0.0815778C 7.03367 -0.0540842 7.74004 -0.0153236 8.1521 0.159099Z"/>
<path id="path52_fill" d="M 7.75137 0.129483L 8.81093 0.536472C 9.22299 0.691515 9.16412 0.943461 8.6932 1.07912L 2.98333 2.66832C 2.51241 2.80398 1.74717 2.7846 1.33512 2.62956L 0.275553 2.22257C -0.1365 2.06753 -0.0776351 1.81558 0.393282 1.67992L 6.10316 0.0907222C 6.57408 -0.0449408 7.33932 -0.0255603 7.75137 0.129483Z"/>
<path id="path53_fill" d="M 7.29922 0.116282L 8.41765 0.484508C 8.88857 0.63955 8.88857 0.872114 8.41765 1.02716L 3.11983 2.77138C 2.64891 2.92643 1.94253 2.92643 1.47162 2.77138L 0.353188 2.40316C -0.117729 2.24811 -0.117729 2.01555 0.353188 1.86051L 5.65101 0.116282C 6.12193 -0.0387606 6.88717 -0.0387606 7.29922 0.116282Z"/>
<path id="path54_fill" d="M 6.75067 0.0907216L 7.98683 0.439567C 8.45775 0.575229 8.51661 0.827172 8.10456 0.982215L 3.27765 2.8621C 2.8656 3.01714 2.10036 3.03653 1.62944 2.90086L 0.393282 2.55202C -0.0776351 2.41636 -0.1365 2.16441 0.275553 2.00937L 5.10246 0.129482C 5.51451 -0.0255602 6.27975 -0.0449405 6.75067 0.0907216Z"/>
<path id="path55_fill" d="M 6.31084 0.0676116L 7.60586 0.377697C 8.13565 0.493979 8.25338 0.745924 7.84132 0.920347L 3.42647 2.91652C 3.07328 3.09095 2.30804 3.12971 1.77826 2.99404L 0.483239 2.68396C -0.0465432 2.56768 -0.164273 2.31573 0.24778 2.14131L 4.66263 0.145133C 5.07468 -0.00990983 5.78106 -0.0486705 6.31084 0.0676116Z"/>
<path id="path56_fill" d="M 5.67507 0.0596628L 7.02896 0.330988C 7.55875 0.44727 7.73534 0.679834 7.44102 0.854257L 3.55594 2.94733C 3.20275 3.12176 2.49638 3.1799 1.96659 3.083L 0.553839 2.81167C 0.0240562 2.69539 -0.152538 2.46283 0.141786 2.2884L 4.02686 0.195325C 4.43891 0.00152181 5.14529 -0.0566192 5.67507 0.0596628Z"/>
<path id="path57_fill" d="M 5.13022 0.0417173L 6.54298 0.274281C 7.13163 0.371182 7.36708 0.603745 7.07276 0.797548L 3.6586 2.98752C 3.36428 3.18132 2.6579 3.25884 2.06925 3.16194L 0.656494 2.92938C 0.0678454 2.83248 -0.167614 2.59991 0.12671 2.40611L 3.54087 0.21614C 3.83519 0.022337 4.54157 -0.0551841 5.13022 0.0417173Z"/>
<path id="path58_fill" d="M 4.49614 0.0293807L 5.96776 0.223185C 6.55641 0.300706 6.85073 0.533271 6.61527 0.727075L 3.7309 2.99458C 3.49544 3.18839 2.78906 3.28529 2.20041 3.20777L 0.728796 3.01396C 0.140148 2.93644 -0.154176 2.70388 0.0812831 2.51007L 2.96566 0.242565C 3.25998 0.0293807 3.90749 -0.0481409 4.49614 0.0293807Z"/>
<path id="path59_fill" d="M 3.81297 0.016617L 5.34345 0.171659C 5.9321 0.229799 6.28529 0.462361 6.1087 0.656163L 3.81297 3.00117C 3.63637 3.19497 2.92999 3.31125 2.34135 3.25311L 0.810859 3.09807C 0.22221 3.03993 -0.130979 2.80736 0.0456157 2.61356L 2.34135 0.268559C 2.51794 0.0553773 3.22432 -0.0415236 3.81297 0.016617Z"/>
<path id="path60_fill" d="M 3.20113 0.00738532L 4.73161 0.123667C 5.37913 0.181807 5.73231 0.375609 5.61458 0.588792L 3.84864 2.97256C 3.67205 3.18574 3.0834 3.30202 2.43589 3.26326L 0.905403 3.14698C 0.257891 3.08884 -0.0952976 2.89504 0.0224319 2.68185L 1.78837 0.298088C 1.96497 0.0849061 2.55362 -0.0313751 3.20113 0.00738532Z"/>
<path id="path61_fill" d="M 2.55123 0.00659965L 4.14058 0.0841215C 4.78809 0.122882 5.20015 0.316687 5.08242 0.529873L 3.90512 2.95243C 3.78739 3.16562 3.19874 3.30128 2.55123 3.26252L 0.961882 3.185C 0.314369 3.14624 -0.0976843 2.95243 0.0200453 2.73925L 1.19734 0.316687C 1.31507 0.103502 1.90372 -0.0321613 2.55123 0.00659965Z"/>
<path id="path62_fill" d="M 1.82976 0L 3.4191 0.0387608C 4.06661 0.0581412 4.53752 0.232565 4.47866 0.44575L 3.89002 2.90706C 3.83115 3.12025 3.30137 3.27529 2.65386 3.25591L 1.06453 3.21715C 0.417018 3.19777 -0.0538967 3.02334 0.00496767 2.81016L 0.593611 0.348847C 0.652476 0.155043 1.24112 0 1.82976 0Z"/>
<path id="path63_fill" d="M 1.1773 0L 2.76664 0C 3.41416 0 3.94394 0.174423 3.94394 0.387607L 3.94394 2.84891C 3.94394 3.0621 3.41416 3.23652 2.76664 3.23652L 1.1773 3.23652C 0.529783 3.23652 0 3.0621 0 2.84891L 0 0.387607C 0 0.174423 0.529783 0 1.1773 0Z"/>
<path id="path64_fill" d="M 1.06453 0.0403963L 2.65387 0.00163554C 3.30138 -0.0177448 3.83116 0.137298 3.89003 0.350482L 4.47867 2.81179C 4.53754 3.02497 4.06662 3.19939 3.41911 3.21877L 1.82977 3.25753C 1.18226 3.27692 0.652478 3.12187 0.593613 2.90869L 0.00496769 0.447384C -0.0538969 0.2342 0.41702 0.0597766 1.06453 0.0403963Z"/>
<path id="path65_fill" d="M 0.961883 0.0835007L 2.55123 0.00597928C 3.19875 -0.0327815 3.7874 0.122261 3.90513 0.316065L 5.08242 2.73861C 5.20015 2.9518 4.72924 3.1456 4.14059 3.18436L 2.55123 3.26188C 1.90372 3.30064 1.31507 3.1456 1.19734 2.9518L 0.0200453 0.529249C -0.0976845 0.316065 0.31437 0.122261 0.961883 0.0835007Z"/>
<path id="path66_fill" d="M 0.903105 0.129785L 2.43359 0.0135033C 3.0811 -0.0446377 3.66974 0.0910247 3.84634 0.304209L 5.61228 2.68799C 5.78887 2.90118 5.37682 3.09498 4.72931 3.15312L 3.19883 3.2694C 2.55131 3.32754 1.96267 3.19188 1.78607 2.9787L 0.0201351 0.594914C -0.0975942 0.38173 0.314458 0.168546 0.903105 0.129785Z"/>
<path id="path67_fill" d="M 0.810856 0.171659L 2.34134 0.016617C 2.92998 -0.0415238 3.63636 0.0553775 3.81295 0.26856L 6.10868 2.61357C 6.28527 2.80737 5.99095 3.03994 5.34344 3.09808L 3.81295 3.25312C 3.22431 3.31126 2.51793 3.21436 2.34134 3.00118L 0.0456156 0.656166C -0.130978 0.462363 0.22221 0.2298 0.810856 0.171659Z"/>
<path id="path68_fill" d="M 0.728793 0.220563L 2.20041 0.026761C 2.78905 -0.0507597 3.49543 0.0461412 3.73089 0.239943L 6.61525 2.50742C 6.85071 2.70123 6.55639 2.93379 5.96774 3.01131L 4.49613 3.20511C 3.90748 3.28263 3.20111 3.18573 2.96565 2.99193L 0.0812828 0.724448C -0.154175 0.530646 0.140147 0.298084 0.728793 0.220563Z"/>
<path id="path69_fill" d="M 0.656494 0.274281L 2.06925 0.0417173C 2.6579 -0.0551841 3.36428 0.022337 3.6586 0.21614L 7.07277 2.40611C 7.36709 2.59991 7.13163 2.83248 6.54298 2.92938L 5.13023 3.16194C 4.54158 3.25884 3.8352 3.18132 3.54087 2.98752L 0.12671 0.797548C -0.167614 0.603745 0.0678455 0.371182 0.656494 0.274281Z"/>
<path id="path70_fill" d="M 0.553838 0.330987L 1.90773 0.0596627C 2.43751 -0.0566191 3.14388 0.0015218 3.49707 0.195325L 7.38214 2.2884C 7.73533 2.46282 7.55873 2.69539 6.97009 2.81167L 5.6162 3.08299C 5.08642 3.19927 4.38004 3.14113 4.02685 2.94733L 0.141785 0.854256C -0.152538 0.679833 0.0240562 0.447269 0.553838 0.330987Z"/>
<path id="path71_fill" d="M 0.483239 0.377696L 1.77826 0.0676113C 2.30805 -0.0486704 3.01442 -0.0099098 3.42648 0.145132L 7.84133 2.1413C 8.19452 2.31572 8.07679 2.54829 7.60587 2.68395L 6.31085 2.99403C 5.78107 3.11032 5.07469 3.07156 4.66264 2.91651L 0.24778 0.920344C -0.164273 0.745921 -0.0465433 0.493978 0.483239 0.377696Z"/>
<path id="path72_fill" d="M 0.393283 0.439567L 1.62944 0.0907216C 2.10036 -0.0449405 2.86561 -0.0255602 3.27766 0.129482L 8.10457 2.00937C 8.51663 2.16441 8.45776 2.41636 7.98684 2.55202L 6.75068 2.90086C 6.27976 3.03653 5.51452 3.01714 5.10247 2.8621L 0.275554 0.982215C -0.1365 0.807792 -0.0776353 0.575229 0.393283 0.439567Z"/>
<path id="path73_fill" d="M 0.353189 0.484508L 1.47162 0.116282C 1.94254 -0.0387606 2.64892 -0.0387606 3.11984 0.116282L 8.41767 1.86051C 8.88859 2.01555 8.88859 2.24811 8.41767 2.40316L 7.29924 2.77138C 6.82832 2.92643 6.12194 2.92643 5.65102 2.77138L 0.353189 1.02716C -0.11773 0.872114 -0.11773 0.63955 0.353189 0.484508Z"/>
<path id="path74_fill" d="M 0.275552 0.536466L 1.33511 0.129482C 1.74716 -0.0255601 2.5124 -0.0449403 2.98332 0.0907212L 8.69318 1.6799C 9.16409 1.81556 9.22296 2.0675 8.8109 2.22254L 7.75134 2.62953C 7.33929 2.78457 6.57405 2.80395 6.10314 2.66829L 0.393281 1.07911C -0.0776349 0.94345 -0.136499 0.710888 0.275552 0.536466Z"/>
<path id="path75_fill" d="M 0.205359 0.585468L 1.14719 0.1591C 1.50038 -0.0153237 2.26562 -0.0540844 2.7954 0.0815781L 8.85844 1.53511C 9.38822 1.65139 9.50595 1.90333 9.0939 2.07776L 8.15206 2.50412C 7.79888 2.67855 7.03364 2.71731 6.50386 2.58165L 0.440816 1.12812C -0.0300994 0.992455 -0.147828 0.740511 0.205359 0.585468Z"/>
<path id="path76_fill" d="M 0.181216 0.628095L 1.00532 0.182344C 1.35851 0.00792019 2.06489 -0.0502212 2.59467 0.0466811L 8.95205 1.32579C 9.48183 1.44207 9.65843 1.67464 9.3641 1.84906L 8.54 2.29481C 8.18681 2.46924 7.48043 2.52738 6.95065 2.43048L 0.593269 1.15137C 0.00462224 1.05446 -0.171972 0.821899 0.181216 0.628095Z"/>
<path id="path77_fill" d="M 0.12671 0.681262L 0.833088 0.216138C 1.12741 0.0223369 1.83379 -0.0551838 2.42244 0.041717L 9.07416 1.16577C 9.66281 1.26267 9.89827 1.49523 9.60394 1.68903L 8.89756 2.15415C 8.60324 2.34796 7.89686 2.42548 7.30822 2.32858L 0.656493 1.20453C 0.0678454 1.08825 -0.167614 0.855684 0.12671 0.681262Z"/>
<path id="path78_fill" d="M 0.0892391 0.724452L 0.677887 0.239944C 0.913346 0.0461415 1.61972 -0.05076 2.20837 0.0267612L 9.09555 0.976396C 9.68419 1.05392 9.97852 1.28648 9.74306 1.48028L 9.15441 1.96479C 8.91895 2.15859 8.21257 2.25549 7.62393 2.17797L 0.736751 1.22834C 0.0892391 1.15082 -0.14622 0.918255 0.0892391 0.724452Z"/>
<path id="path79_fill" d="M 0.0504719 0.770847L 0.521391 0.266961C 0.697985 0.0731588 1.40436 -0.0431225 1.99301 0.0150182L 9.11566 0.770847C 9.7043 0.828988 10.0575 1.06155 9.8809 1.25535L 9.40998 1.75924C 9.23339 1.95304 8.52701 2.06932 7.93836 2.01118L 0.815715 1.25535C 0.168202 1.17783 -0.126123 0.964649 0.0504719 0.770847Z"/>
<path id="path80_fill" d="M 0.0224319 0.80197L 0.37562 0.298087C 0.552215 0.0849057 1.14086 -0.0313749 1.78837 0.00738529L 9.02874 0.588789C 9.67625 0.646929 10.0294 0.84073 9.91171 1.05391L 9.55852 1.55779C 9.38193 1.77098 8.79328 1.88726 8.14577 1.8485L 0.905403 1.26709C 0.257891 1.20895 -0.0952976 0.995771 0.0224319 0.80197Z"/>
<path id="path81_fill" d="M 0.0200452 0.839954L 0.255504 0.316685C 0.373233 0.103501 0.96188 -0.0321611 1.60939 0.0065996L 8.96747 0.394206C 9.61498 0.432967 10.027 0.626771 9.90931 0.839954L 9.67385 1.36322C 9.55612 1.57641 8.96747 1.71207 8.31996 1.67331L 0.96188 1.2857C 0.314368 1.24694 -0.0976841 1.05314 0.0200452 0.839954Z"/>
<path id="path82_fill" d="M 0 0.873744L 0.11773 0.350479C 0.176594 0.137297 0.706378 -0.0177447 1.35389 0.00163553L 8.82972 0.195437C 9.47724 0.214818 9.94815 0.389239 9.88929 0.602422L 9.77156 1.12569C 9.71269 1.33887 9.18291 1.49391 8.5354 1.47453L 1.05957 1.28073C 0.470918 1.28073 0 1.08693 0 0.873744Z"/>
<path id="path83_fill" d="M 0 0.910883L 0 0.38761C 0 0.174424 0.529781 0 1.17729 0L 8.65309 0C 9.3006 0 9.83038 0.174424 9.83038 0.38761L 9.83038 0.910883C 9.83038 1.12407 9.3006 1.29849 8.65309 1.29849L 1.17729 1.29849C 0.529781 1.29849 0 1.12407 0 0.910883Z"/>
<path id="path84_fill" d="M 0.122697 1.1257L 0.00496768 0.602431C -0.0538968 0.389245 0.417019 0.214821 1.06453 0.19544L 8.54032 0.00163556C 9.18783 -0.0177449 9.71761 0.137299 9.77647 0.350484L 9.8942 0.873758C 9.95307 1.08694 9.48215 1.26137 8.83464 1.28075L 1.35885 1.47455C 0.711342 1.49393 0.181561 1.33889 0.122697 1.1257Z"/>
<path id="path85_fill" d="M 0.25362 1.36261L 0.0181611 0.839338C -0.0995684 0.626153 0.37135 0.432349 0.959997 0.393588L 8.31809 0.0059793C 8.9656 -0.0327816 9.55425 0.122262 9.67198 0.316066L 9.90744 0.839338C 10.0252 1.05252 9.55425 1.24633 8.9656 1.28509L 1.60751 1.6727C 0.959997 1.71146 0.37135 1.55641 0.25362 1.36261Z"/>
<path id="path86_fill" d="M 0.394203 1.56393L 0.0410143 1.06004C -0.13558 0.846857 0.276473 0.653054 0.923986 0.594913L 8.16436 0.0135033C 8.81187 -0.0446376 9.40052 0.0910246 9.57711 0.304208L 9.9303 0.808096C 10.1069 1.02128 9.69484 1.21508 9.04733 1.27322L 1.80696 1.85463C 1.15945 1.89339 0.511933 1.77711 0.394203 1.56393Z"/>
<path id="path87_fill" d="M 0.521389 1.76084L 0.0504717 1.25695C -0.126122 1.06315 0.168201 0.830586 0.815712 0.772445L 7.93833 0.016617C 8.52698 -0.0415237 9.23335 0.0553774 9.40995 0.26856L 9.88086 0.772445C 10.0575 0.966248 9.76313 1.19881 9.11562 1.25695L 1.993 2.01278C 1.40436 2.07092 0.697983 1.97402 0.521389 1.76084Z"/>
<path id="path88_fill" d="M 0.66993 1.9648L 0.081283 1.48029C -0.154176 1.28648 0.140148 1.05392 0.728795 0.976399L 7.61596 0.0267613C 8.20461 -0.0507602 8.91099 0.0461416 9.14645 0.239945L 9.73509 0.724454C 9.97055 0.918258 9.67623 1.15082 9.08758 1.22834L 2.20041 2.17798C 1.61176 2.2555 0.905389 2.1586 0.66993 1.9648Z"/>
<path id="path89_fill" d="M 0.833088 2.15416L 0.12671 1.68903C -0.167614 1.49523 0.0678454 1.26267 0.656493 1.16577L 7.30822 0.0417171C 7.89686 -0.0551838 8.60324 0.0223369 8.89756 0.216139L 9.60394 0.681263C 9.89827 0.875065 9.66281 1.10763 9.07416 1.20453L 2.42244 2.32858C 1.83379 2.4061 1.12741 2.32858 0.833088 2.15416Z"/>
<path id="path90_fill" d="M 1.00532 2.30778L 0.181216 1.86203C -0.171972 1.68761 0.00462224 1.45505 0.593269 1.33876L 6.95065 0.0596628C 7.48043 -0.0566192 8.18681 0.0015218 8.54 0.195325L 9.3641 0.641073C 9.71729 0.815496 9.5407 1.04806 8.95205 1.16434L 2.59467 2.44344C 2.06489 2.54034 1.35851 2.4822 1.00532 2.30778Z"/>
<path id="path91_fill" d="M 1.14719 2.49016L 0.205359 2.06379C -0.147829 1.88937 -0.0300995 1.6568 0.440818 1.52114L 6.50388 0.0676116C 7.03366 -0.0486705 7.74004 -0.00990983 8.15209 0.145133L 9.09393 0.571501C 9.44711 0.745924 9.32938 0.978488 8.85847 1.11415L 2.79541 2.56768C 2.26562 2.70334 1.50038 2.66458 1.14719 2.49016Z"/>
<path id="path92_fill" d="M 1.33512 2.62954L 0.275553 2.22255C -0.1365 2.06751 -0.0776351 1.81557 0.393282 1.6799L 6.10316 0.0907215C 6.57408 -0.0449404 7.33932 -0.0255602 7.75137 0.129482L 8.81093 0.536468C 9.22299 0.69151 9.16412 0.943454 8.6932 1.07912L 2.98333 2.6683C 2.45355 2.80396 1.74717 2.78458 1.33512 2.62954Z"/>
<path id="path93_fill" d="M 1.47162 2.77138L 0.353188 2.40315C -0.117729 2.24811 -0.117729 2.01555 0.353188 1.86051L 5.65101 0.116282C 6.12193 -0.0387605 6.82831 -0.0387605 7.29923 0.116282L 8.41766 0.484507C 8.88857 0.639549 8.88857 0.872112 8.41766 1.02715L 3.11983 2.77138C 2.64891 2.90704 1.94254 2.90704 1.47162 2.77138Z"/>
<path id="path94_fill" d="M 1.62944 2.90086L 0.393282 2.55201C -0.077635 2.41635 -0.1365 2.16441 0.275553 2.00937L 5.10245 0.129482C 5.5145 -0.0255601 6.27974 -0.0449404 6.75066 0.0907214L 7.98681 0.439566C 8.45773 0.575228 8.5166 0.827171 8.10454 0.982213L 3.27765 2.8621C 2.86559 3.01714 2.15922 3.03652 1.62944 2.90086Z"/>
<path id="path95_fill" d="M 1.77826 3.008L 0.483239 2.69791C -0.0465433 2.58163 -0.164273 2.32969 0.24778 2.15527L 4.66264 0.159099C 5.01582 -0.0153236 5.78107 -0.0540841 6.31085 0.0815777L 7.60587 0.391662C 8.13566 0.507943 8.25338 0.759887 7.84133 0.934309L 3.42648 2.93048C 3.01442 3.1049 2.24918 3.14366 1.77826 3.008Z"/>
<path id="path96_fill" d="M 1.90773 3.07L 0.553838 2.79868C 0.0240562 2.6824 -0.152538 2.44983 0.141786 2.27541L 4.02685 0.182342C 4.38004 0.00792011 5.08642 -0.0502207 5.6162 0.0466806L 6.97009 0.318004C 7.49987 0.434286 7.67646 0.666849 7.38214 0.841271L 3.49707 2.93434C 3.20275 3.12814 2.49637 3.18628 1.90773 3.07Z"/>
<path id="path97_fill" d="M 2.06924 3.16194L 0.65649 2.92937C 0.0678451 2.83247 -0.167613 2.59991 0.12671 2.40611L 3.54085 0.216139C 3.83517 0.022337 4.54155 -0.055184 5.13019 0.0417172L 6.54294 0.27428C 7.13159 0.371181 7.36704 0.603744 7.07272 0.797547L 3.65858 2.98751C 3.30539 3.18132 2.59902 3.25884 2.06924 3.16194Z"/>
<path id="path98_fill" d="M 2.20041 3.20512L 0.728795 3.01132C 0.140148 2.9338 -0.154176 2.70123 0.081283 2.50743L 2.96565 0.239944C 3.20111 0.0461413 3.90749 -0.0507599 4.49614 0.0267611L 5.96775 0.220564C 6.5564 0.298084 6.85072 0.530647 6.61527 0.72445L 3.73089 2.99194C 3.49544 3.18574 2.78906 3.28264 2.20041 3.20512Z"/>
<path id="path99_fill" d="M 2.34133 3.25152L 0.810855 3.09648C 0.222209 3.03834 -0.130978 2.80578 0.0456155 2.61197L 2.34133 0.266962C 2.51793 0.073159 3.2243 -0.0431226 3.81295 0.0150182L 5.34343 0.17006C 5.93207 0.228201 6.28526 0.460764 6.10867 0.654567L 3.81295 2.99958C 3.57749 3.19338 2.92998 3.30966 2.34133 3.25152Z"/>
<path id="path100_fill" d="M 2.43587 3.26327L 0.905397 3.14699C 0.257889 3.08885 -0.095297 2.89504 0.0224318 2.68186L 1.78836 0.298089C 1.96496 0.0849063 2.5536 -0.0313752 3.20111 0.00738534L 4.73158 0.123667C 5.37909 0.181808 5.73228 0.37561 5.61455 0.588793L 3.84862 2.97256C 3.67202 3.18575 3.02451 3.32141 2.43587 3.26327Z"/>
<path id="path101_fill" d="M 2.55123 3.26248L 0.961882 3.18496C 0.314369 3.1462 -0.0976843 2.9524 0.0200453 2.73921L 1.19734 0.316683C 1.31507 0.103501 1.90372 -0.0321609 2.55123 0.00659957L 4.14058 0.0841205C 4.78809 0.122881 5.20015 0.316683 5.08242 0.529866L 3.90512 2.9524C 3.78739 3.1462 3.19874 3.30124 2.55123 3.26248Z"/>
<path id="path102_fill" d="M 2.65387 3.25752L 1.06453 3.21876C 0.41702 3.19938 -0.0538969 3.02496 0.00496769 2.81177L 0.593613 0.35048C 0.652478 0.137297 1.18226 -0.0177447 1.82977 0.00163553L 3.41911 0.040396C 4.06662 0.0597763 4.53754 0.234199 4.47867 0.447381L 3.89003 2.90867C 3.89003 3.12186 3.30138 3.2769 2.65387 3.25752Z"/>
</defs>
</svg>
