<svg width="556" height="318" viewBox="0 0 556 318" version="1.1" xmlns="http://www.w3.org/2000/svg" xmlns:xlink="http://www.w3.org/1999/xlink">
<title>voicex</title>
<desc>Created using Figma</desc>
<g id="Canvas" transform="matrix(2 0 0 2 3084 292)">
<g id="voicex">
<g id="Canvas">
<g id="voicex">
<g id=")">
<g id="Vector">
<use xlink:href="#path0_fill" transform="matrix(16 -8.55005e-23 8.55005e-23 16 -1390.18 -146)" fill="#41667A"/>
</g>
</g>
<g id=")">
<g id="Vector">
<use xlink:href="#path1_fill" transform="matrix(16 -8.55005e-23 8.55005e-23 16 -1437.79 -133.831)" fill="#41667A"/>
</g>
</g>
<g id=")">
<g id="Vector">
<use xlink:href="#path2_fill" transform="matrix(16 -8.55005e-23 8.55005e-23 16 -1466.97 -114.488)" fill="#41667A"/>
</g>
</g>
<g id="Group">
<g id="{">
<g id="Vector">
<use xlink:href="#path3_fill" transform="matrix(16 0 0 16 -1303.81 -122.775)" fill="#3C649A"/>
</g>
</g>
<g id="Ellipse">
<g id="Vector">
<use xlink:href="#path4_fill" transform="matrix(16 0 0 16 -1273.35 -98.8674)" fill="#3C649A"/>
</g>
</g>
</g>
<g id="Polygon">
<g id="Vector">
<use xlink:href="#path5_fill" transform="matrix(8.88179e-16 -16 16 8.88179e-16 -1542 -41.4714)" fill="#41667A"/>
</g>
</g>
</g>
</g>
</g>
</g>
<defs>
<path id="path0_fill" d="M 1.12301 4.96908C 1.12301 5.89666 1.0667 6.65523 0.954063 7.24491C 0.848058 7.82793 0.722171 8.26854 0.576413 8.56669C 0.430655 8.86483 0.238516 9.18946 -5.57515e-09 9.54063L 0.566475 9.92822C 1.14289 9.37168 1.55698 8.70916 1.80874 7.94059C 2.06051 7.17868 2.18639 6.18814 2.18639 4.96908C 2.18639 3.75002 2.06051 2.75618 1.80874 1.98763C 1.55698 1.21908 1.14289 0.556537 0.566475 -2.00706e-08L -5.57515e-09 0.387588C 0.245141 0.745362 0.437279 1.07332 0.576413 1.37147C 0.722171 1.66961 0.848058 2.11351 0.954063 2.70318C 1.0667 3.28621 1.12301 4.0415 1.12301 4.96908Z"/>
<path id="path1_fill" d="M 0.924833 4.09218C 0.924833 4.85607 0.878457 5.48078 0.785699 5.9664C 0.698401 6.44653 0.594728 6.80939 0.474693 7.05492C 0.354658 7.30045 0.196425 7.56779 -7.66584e-09 7.85699L 0.466509 8.17618C 0.941202 7.71785 1.28221 7.17225 1.48955 6.53931C 1.69689 5.91186 1.80056 5.09611 1.80056 4.09218C 1.80056 3.08823 1.69689 2.2698 1.48955 1.63687C 1.28221 1.00395 0.941202 0.458324 0.466509 4.90614e-08L -7.66584e-09 0.31919C 0.201881 0.613827 0.360112 0.883911 0.474693 1.12944C 0.594728 1.37497 0.698401 1.74054 0.785699 2.22615C 0.878457 2.70629 0.924833 3.32831 0.924833 4.09218Z"/>
<path id="path2_fill" d="M 0.660595 2.92299C 0.660595 3.46861 0.627466 3.91486 0.561213 4.26171C 0.498854 4.6047 0.424809 4.86385 0.339066 5.03923C 0.253325 5.21461 0.140303 5.4056 6.96894e-09 5.61213L 0.33322 5.84013C 0.672287 5.51275 0.915871 5.123 1.06397 4.67093C 1.21206 4.22274 1.28611 3.64009 1.28611 2.92299C 1.28611 2.20588 1.21206 1.62128 1.06397 1.16919C 0.915871 0.717108 0.672287 0.327374 0.33322 -4.46012e-08L 6.96894e-09 0.227993C 0.144201 0.438448 0.257223 0.631365 0.339066 0.806744C 0.424809 0.982123 0.498854 1.24325 0.561213 1.5901C 0.627466 1.93307 0.660595 2.37736 0.660595 2.92299Z"/>
<path id="path3_fill" d="M 2.09052 5.94185C 1.66026 5.94185 1.33054 5.82727 1.10138 5.5981C 0.876896 5.36894 0.764653 4.98077 0.764653 4.43359L 0.764653 4.01268C 0.764653 3.76481 0.694502 3.5754 0.554198 3.44445C 0.413895 3.3135 0.229162 3.24802 1.0314e-08 3.24802L 1.0314e-08 2.69382C 0.229162 2.69382 0.413895 2.62835 0.554198 2.4974C 0.694502 2.36645 0.764653 2.17704 0.764653 1.92917L 0.764653 1.50826C 0.764653 0.961078 0.876896 0.572905 1.10138 0.343743C 1.33054 0.114581 1.66026 3.34509e-09 2.09052 3.34509e-09L 2.27291 3.34509e-09L 2.27291 0.477032C 1.96425 0.477032 1.7421 0.533153 1.60647 0.645395C 1.47085 0.752961 1.40303 0.947048 1.40303 1.22765L 1.40303 1.64856C 1.40303 1.91982 1.38199 2.13729 1.3399 2.30098C 1.30248 2.46466 1.22765 2.59795 1.11541 2.70084C 1.00785 2.80373 0.848835 2.87622 0.63838 2.91831L 0.63838 3.03055C 0.848835 3.05394 1.00785 3.1124 1.11541 3.20593C 1.22765 3.29479 1.30248 3.41873 1.3399 3.57774C 1.37731 3.73675 1.39602 3.95188 1.39602 4.22313L 1.39602 4.73524C 1.39602 5.00649 1.46617 5.1959 1.60647 5.30347C 1.74678 5.41103 1.96892 5.46482 2.27291 5.46482L 2.27291 5.94185L 2.09052 5.94185Z"/>
<path id="path4_fill" d="M 0.584597 0.292299C 0.584597 0.453731 0.453731 0.584597 0.292299 0.584597C 0.130867 0.584597 0 0.453731 0 0.292299C 0 0.130867 0.130867 0 0.292299 0C 0.453731 0 0.584597 0.130867 0.584597 0.292299Z"/>
<path id="path5_fill" d="M 0.906982 0.45599C 1.37501 -0.151997 2.2919 -0.151997 2.75993 0.45599L 3.42204 1.3161C 4.01389 2.08492 3.46581 3.19849 2.49557 3.19849L 1.17135 3.19849C 0.201105 3.19849 -0.346973 2.08492 0.244873 1.3161L 0.906982 0.45599Z"/>
</defs>
</svg>
