<svg width="238" height="56" viewBox="0 0 238 56" version="1.1" xmlns="http://www.w3.org/2000/svg" xmlns:xlink="http://www.w3.org/1999/xlink">
<title>Component</title>
<desc>Created using Figma</desc>
<g id="Canvas" transform="matrix(2 0 0 2 4008 2224)">
<g id="Component">
<g id="Union">
<use xlink:href="#path0_fill" transform="translate(-2004 -1112)" fill="#FFFFFF"/>
</g>
<g id="VoiceX">
<use xlink:href="#path1_fill" transform="translate(-1943 -1107)" fill="#FFFFFF"/>
</g>
</g>
</g>
<defs>
<path id="path0_fill" fill-rule="evenodd" d="M 29.4514 20.4325C 29.7691 18.7694 29.928 16.63 29.928 14.014C 29.928 11.3981 29.7691 9.26794 29.4514 7.62366C 29.1525 5.96069 28.7975 4.70874 28.3864 3.86792C 27.994 3.02698 27.4522 2.10205 26.7608 1.09314L 28.3584 0C 29.984 1.56958 31.1519 3.43811 31.8618 5.60559C 32.5719 7.77307 32.9269 10.5759 32.9269 14.014C 32.9269 17.4521 32.5719 20.2457 31.8618 22.3944C 31.1519 24.562 29.984 26.4304 28.3584 28L 26.7608 26.907C 27.4335 25.9166 27.9754 25.0011 28.3864 24.1602C 28.7975 23.3193 29.1525 22.0768 29.4514 20.4325ZM 20.5849 18.9718C 20.8465 17.6022 20.9773 15.8403 20.9773 13.686C 20.9773 11.5316 20.8465 9.77747 20.5849 8.42334C 20.3387 7.05383 20.0463 6.02283 19.7078 5.33032C 19.3847 4.63782 18.9384 3.87622 18.369 3.04517L 19.6847 2.14502C 21.0235 3.43762 21.9853 4.97644 22.57 6.76135C 23.1547 8.54639 23.4471 10.8546 23.4471 13.686C 23.4471 16.5173 23.1547 18.818 22.57 20.5875C 21.9853 22.3726 21.0235 23.9113 19.6847 25.2039L 18.369 24.3037C 18.923 23.488 19.3693 22.7341 19.7078 22.0416C 20.0463 21.3492 20.3387 20.3258 20.5849 18.9718ZM 15.0879 13.7981C 15.0879 15.3369 14.9945 16.5955 14.8076 17.5736C 14.6317 18.5409 14.423 19.2719 14.1812 19.7665C 13.9394 20.261 13.6206 20.7997 13.2249 21.3822L 14.1647 22.0251C 15.1209 21.1019 15.8079 20.0027 16.2255 18.7278C 16.6432 17.4637 16.8521 15.8206 16.8521 13.7981C 16.8521 11.7756 16.6432 10.127 16.2255 8.85193C 15.8079 7.57703 15.1209 6.47778 14.1647 5.55457L 13.2249 6.19751C 13.6316 6.79114 13.9503 7.33521 14.1812 7.82983C 14.423 8.32434 14.6317 9.06079 14.8076 10.0391C 14.9945 11.0063 15.0879 12.2593 15.0879 13.7981ZM 45.0912 19.8818C 45.7375 20.5281 46.6674 20.8513 47.8808 20.8513L 48.3952 20.8513L 48.3952 19.5059C 47.5379 19.5059 46.9113 19.3542 46.5157 19.0509C 46.12 18.7476 45.9221 18.2134 45.9221 17.4484L 45.9221 16.004C 45.9221 15.239 45.8694 14.6323 45.7638 14.1838C 45.6584 13.7355 45.4473 13.3859 45.1308 13.1353C 44.8274 12.8715 44.3789 12.7067 43.7854 12.6406L 43.7854 12.3241C 44.3789 12.2054 44.8274 12.001 45.1308 11.7108C 45.4473 11.4207 45.6584 11.0447 45.7638 10.5831C 45.8826 10.1215 45.9419 9.50818 45.9419 8.74316L 45.9419 7.55603C 45.9419 6.76465 46.1332 6.21729 46.5157 5.91394C 46.8981 5.59741 47.5247 5.43909 48.3952 5.43909L 48.3952 4.09375L 47.8808 4.09375C 46.6674 4.09375 45.7375 4.41687 45.0912 5.06323C 44.458 5.70947 44.1415 6.8042 44.1415 8.34741L 44.1415 9.53455C 44.1415 10.2335 43.9436 10.7677 43.548 11.1371C 43.1523 11.5063 42.6313 11.691 41.985 11.691L 41.985 13.254C 42.6313 13.254 43.1523 13.4386 43.548 13.808C 43.9436 14.1772 44.1415 14.7114 44.1415 15.4105L 44.1415 16.5975C 44.1415 18.1407 44.458 19.2355 45.0912 19.8818ZM 49.0019 9.1322C 49.0019 9.58752 48.6328 9.95654 48.1775 9.95654C 47.7222 9.95654 47.3532 9.58752 47.3532 9.1322C 47.3532 8.67688 47.7222 8.30786 48.1775 8.30786C 48.6328 8.30786 49.0019 8.67688 49.0019 9.1322ZM 1.28604 10.6411C -0.42868 11.9611 -0.42868 14.5469 1.28604 15.8669L 3.7117 17.7343C 5.88004 19.4033 9.02054 17.8577 9.02054 15.1213L 9.02054 11.3867C 9.02054 8.65039 5.88004 7.10461 3.7117 8.7738L 1.28604 10.6411Z"/>
<path id="path1_fill" d="M 2.39062 1.08887L 6.09961 12.084L 9.76465 1.08887L 11.7246 1.08887L 7.01367 14L 5.15918 14L 0.457031 1.08887L 2.39062 1.08887ZM 16.9014 12.9805C 17.9502 12.9805 18.668 12.585 19.0547 11.7939C 19.4473 10.9971 19.6436 10.1123 19.6436 9.13965C 19.6436 8.26074 19.5029 7.5459 19.2217 6.99512C 18.7764 6.12793 18.0088 5.69434 16.9189 5.69434C 15.9521 5.69434 15.249 6.06348 14.8096 6.80176C 14.3701 7.54004 14.1504 8.43066 14.1504 9.47363C 14.1504 10.4756 14.3701 11.3105 14.8096 11.9785C 15.249 12.6465 15.9463 12.9805 16.9014 12.9805ZM 16.9629 4.31445C 18.1758 4.31445 19.2012 4.71875 20.0391 5.52734C 20.877 6.33594 21.2959 7.52539 21.2959 9.0957C 21.2959 10.6133 20.9268 11.8672 20.1885 12.8574C 19.4502 13.8477 18.3047 14.3428 16.752 14.3428C 15.457 14.3428 14.4287 13.9062 13.667 13.0332C 12.9053 12.1543 12.5244 10.9766 12.5244 9.5C 12.5244 7.91797 12.9258 6.6582 13.7285 5.7207C 14.5312 4.7832 15.6094 4.31445 16.9629 4.31445ZM 23.1855 4.63086L 24.7939 4.63086L 24.7939 14L 23.1855 14L 23.1855 4.63086ZM 23.1855 1.08887L 24.7939 1.08887L 24.7939 2.88184L 23.1855 2.88184L 23.1855 1.08887ZM 30.8232 4.31445C 31.8838 4.31445 32.7451 4.57227 33.4072 5.08789C 34.0752 5.60352 34.4766 6.49121 34.6113 7.75098L 33.0732 7.75098C 32.9795 7.1709 32.7656 6.69043 32.4316 6.30957C 32.0977 5.92285 31.5615 5.72949 30.8232 5.72949C 29.8154 5.72949 29.0947 6.22168 28.6611 7.20605C 28.3799 7.84473 28.2393 8.63281 28.2393 9.57031C 28.2393 10.5137 28.4385 11.3076 28.8369 11.9521C 29.2354 12.5967 29.8623 12.9189 30.7178 12.9189C 31.374 12.9189 31.8926 12.7197 32.2734 12.3213C 32.6602 11.917 32.9268 11.3662 33.0732 10.6689L 34.6113 10.6689C 34.4355 11.917 33.9961 12.8311 33.293 13.4111C 32.5898 13.9854 31.6904 14.2725 30.5947 14.2725C 29.3643 14.2725 28.3828 13.8242 27.6504 12.9277C 26.918 12.0254 26.5518 10.9004 26.5518 9.55273C 26.5518 7.90039 26.9531 6.61426 27.7559 5.69434C 28.5586 4.77441 29.5811 4.31445 30.8232 4.31445ZM 40.1133 4.37598C 40.7812 4.37598 41.4287 4.53418 42.0557 4.85059C 42.6826 5.16113 43.1602 5.56543 43.4883 6.06348C 43.8047 6.53809 44.0156 7.0918 44.1211 7.72461C 44.2148 8.1582 44.2617 8.84961 44.2617 9.79883L 37.3623 9.79883C 37.3916 10.7539 37.6172 11.5215 38.0391 12.1016C 38.4609 12.6758 39.1143 12.9629 39.999 12.9629C 40.8252 12.9629 41.4844 12.6904 41.9766 12.1455C 42.2578 11.8291 42.457 11.4629 42.5742 11.0469L 44.1299 11.0469C 44.0889 11.3926 43.9512 11.7793 43.7168 12.207C 43.4883 12.6289 43.2305 12.9746 42.9434 13.2441C 42.4629 13.7129 41.8682 14.0293 41.1592 14.1934C 40.7783 14.2871 40.3477 14.334 39.8672 14.334C 38.6953 14.334 37.7021 13.9092 36.8877 13.0596C 36.0732 12.2041 35.666 11.0088 35.666 9.47363C 35.666 7.96191 36.0762 6.73438 36.8965 5.79102C 37.7168 4.84766 38.7891 4.37598 40.1133 4.37598ZM 42.6357 8.54199C 42.5713 7.85645 42.4219 7.30859 42.1875 6.89844C 41.7539 6.13672 41.0303 5.75586 40.0166 5.75586C 39.29 5.75586 38.6807 6.01953 38.1885 6.54688C 37.6963 7.06836 37.4355 7.7334 37.4062 8.54199L 42.6357 8.54199ZM 47.5312 14L 45.4219 14L 50.0449 7.38184L 45.7119 1.08887L 47.9004 1.08887L 51.1963 6.02832L 54.4658 1.08887L 56.5488 1.08887L 52.2158 7.38184L 56.7598 14L 54.5889 14L 51.1084 8.69141L 47.5312 14Z"/>
</defs>
</svg>
