<svg width="157" height="250" viewBox="0 0 157 250" version="1.1" xmlns="http://www.w3.org/2000/svg" xmlns:xlink="http://www.w3.org/1999/xlink">
<title>apple watch</title>
<desc>Created using Figma</desc>
<g id="Canvas" transform="translate(-1961 -2776)">
<g id="apple watch">
<g id="Shape">
<use xlink:href="#path0_fill" transform="translate(1961 2776)"/>
</g>
</g>
</g>
<defs>
<path id="path0_fill" fill-rule="evenodd" d="M 140.625 78.125L 148.438 78.125C 152.75 78.125 156.25 81.625 156.25 85.9375L 156.25 101.562C 156.25 105.875 152.75 109.375 148.438 109.375L 140.625 109.375L 140.625 171.875C 140.625 182.375 135.375 191.656 127.391 197.312C 120.766 211.141 117.188 226.562 117.188 242.188C 117.188 246.5 113.688 250 109.375 250L 31.25 250C 26.9375 250 23.4375 246.5 23.4375 242.188C 23.4375 226.562 19.8594 211.141 13.2344 197.328C 5.25 191.656 0 182.391 0 171.875L 0 78.125C 0 67.6094 5.25 58.3438 13.2344 52.6719C 19.8594 38.8594 23.4375 23.4219 23.4375 7.8125C 23.4375 3.5 26.9375 0 31.25 0L 109.375 0C 113.688 0 117.188 3.5 117.188 7.8125C 117.188 23.4219 120.766 38.8594 127.391 52.6719C 135.375 58.3438 140.625 67.6094 140.625 78.125ZM 109.375 187.5C 118 187.5 125 180.5 125 171.875L 125 78.125C 125 69.5156 118 62.5 109.375 62.5L 31.25 62.5C 22.6406 62.5 15.625 69.5156 15.625 78.125L 15.625 171.875C 15.625 180.5 22.6406 187.5 31.25 187.5L 109.375 187.5Z"/>
</defs>
</svg>
